#!OML:ASF F:\VICON\USERDATA\INSTALL\rory3\rory3.ASF
:FULLY-SPECIFIED
:DEGREES
106
root 0.959669 17.6033 -15.9671 9.64112 -0.413702 -0.860511
lowerback 13.6911 -0.173994 0.0412119
upperback 1.34509 -0.00185326 3.32313
thorax -6.26271 0.0403213 3.49742
lowerneck -18.6832 -4.48126 -9.59113
upperneck 20.0223 -4.58469 4.95926
head 9.78543 -2.29751 2.67822
rclavicle 1.53064e-014 1.03368e-014
rhumerus -28.7247 5.40695 -86.935
rradius 44.927
rwrist 2.72048
rhand -8.25339 10.1551
rfingers 7.12502
rthumb 17.665 -19.0625
lclavicle 1.53064e-014 1.03368e-014
lhumerus -25.7616 -0.271212 93.6992
lradius 36.5937
lwrist -3.85328
lhand -20.4795 19.5671
lfingers 7.12502
lthumb 5.87686 49.4656
rfemur -22.4998 2.44935 20.7085
rtibia 30.2575
rfoot -13.0252 -6.48919
rtoes 0.958758
lfemur -24.2682 -0.716091 -17.8835
ltibia 32.2349
lfoot -14.6013 1.60025
ltoes 0.127604
107
root 0.964311 17.5792 -16.002 9.87759 -0.515768 -0.571033
lowerback 14.0829 -0.128515 -0.337853
upperback 1.35052 0.00286616 3.26375
thorax -6.47486 0.0542242 3.65584
lowerneck -18.5649 -4.37163 -9.44253
upperneck 19.7293 -4.47203 4.9288
head 9.64605 -2.23579 2.65828
rclavicle 4.96962e-015 4.77083e-015
rhumerus -28.5223 5.35021 -86.8615
rradius 44.9181
rwrist 3.1317
rhand -8.59058 10.7789
rfingers 7.12502
rthumb 17.3405 -18.4675
lclavicle 4.96962e-015 4.77083e-015
lhumerus -25.8051 -0.17324 93.5744
lradius 37.2096
lwrist -4.44658
lhand -19.7542 20.995
lfingers 7.12502
lthumb 6.5771 50.8729
rfemur -23.418 2.25553 20.3752
rtibia 31.2005
rfoot -13.2243 -6.37269
rtoes 0.559176
lfemur -24.9679 -0.524484 -18.2474
ltibia 32.7893
lfoot -14.6676 1.46563
ltoes 0.299032
108
root 0.967327 17.5522 -16.043 10.2103 -0.600911 -0.425389
lowerback 14.3674 -0.054281 -0.463035
upperback 1.48614 0.0749181 3.16367
thorax -6.49276 0.0902989 3.60848
lowerneck -19.1212 -4.37941 -9.15849
upperneck 19.6918 -4.49295 4.86059
head 9.72628 -2.22331 2.57836
rclavicle -9.93923e-016 -5.56597e-015
rhumerus -27.8066 4.88907 -86.7915
rradius 44.8125
rwrist 3.48257
rhand -8.6459 11.1875
rfingers 7.12502
rthumb 17.2873 -18.0636
lclavicle -9.93923e-016 -5.56597e-015
lhumerus -25.4398 -0.704579 93.5586
lradius 37.5492
lwrist -3.78838
lhand -26.8116 14.5898
lfingers 7.12502
lthumb -0.238159 44.5694
rfemur -24.4304 2.05368 20.2033
rtibia 32.1028
rfoot -13.4854 -6.1062
rtoes 1.10718
lfemur -25.8318 -0.304527 -18.4485
ltibia 33.3316
lfoot -14.6344 1.35266
ltoes 0.191666
109
root 0.970665 17.529 -16.0844 10.6322 -0.420977 -0.293279
lowerback 14.6362 -0.0555963 -0.463911
upperback 1.52787 0.0702285 3.08656
thorax -6.59673 0.087902 3.53088
lowerneck -19.4803 -4.45269 -9.11272
upperneck 19.6044 -4.60509 5.00692
head 9.77146 -2.24878 2.60167
rclavicle -1.03368e-014 2.70347e-014
rhumerus -27.1328 4.321 -86.6744
rradius 44.6408
rwrist 3.63853
rhand -8.08519 11.0174
rfingers 7.12502
rthumb 17.8269 -18.1855
lclavicle -1.03368e-014 2.70347e-014
lhumerus -25.2955 -1.60258 93.7007
lradius 37.9248
lwrist -2.19211
lhand -19.1876 24.7743
lfingers 7.12502
lthumb 7.12411 54.6344
rfemur -25.4774 1.68234 20.0745
rtibia 32.9256
rfoot -13.727 -5.93614
rtoes 1.38231
lfemur -26.8011 -0.297975 -18.6103
ltibia 33.8174
lfoot -14.6194 1.19069
ltoes -0.339566
110
root 0.980081 17.517 -16.1115 10.9557 -0.327605 -0.0375574
lowerback 14.8786 -0.0718079 -0.579838
upperback 1.53785 0.027008 3.00617
thorax -6.71746 0.0703458 3.52336
lowerneck -19.5538 -4.47793 -9.20272
upperneck 19.4607 -4.64077 5.17399
head 9.74325 -2.25041 2.66837
rclavicle -1.98785e-015 4.05521e-014
rhumerus -26.7467 3.93465 -86.5532
rradius 44.698
rwrist 3.34623
rhand -7.20904 9.95708
rfingers 7.12502
rthumb 18.6698 -19.167
lclavicle -1.98785e-015 4.05521e-014
lhumerus -25.1888 -1.50164 93.5461
lradius 38.0729
lwrist -3.2837
lhand -20.3244 21.5867
lfingers 7.12502
lthumb 6.02664 51.481
rfemur -26.3309 1.2964 19.7919
rtibia 33.6578
rfoot -13.9948 -5.76474
rtoes 0.887137
lfemur -27.4896 -0.3117 -18.9342
ltibia 34.2721
lfoot -14.7308 1.07263
ltoes -0.365183
111
root 0.989705 17.5076 -16.1332 11.2063 -0.26911 0.266017
lowerback 15.0298 -0.120743 -0.794473
upperback 1.62456 -0.0777005 2.94403
thorax -6.70115 0.0233969 3.60181
lowerneck -19.7426 -4.42546 -9.16524
upperneck 19.3253 -4.55033 5.14967
head 9.7207 -2.20453 2.66383
rclavicle -4.77083e-015 4.77083e-015
rhumerus -26.4742 3.72309 -86.457
rradius 45.1648
rwrist 2.74747
rhand -6.47085 8.63491
rfingers 7.12502
rthumb 19.3797 -20.4194
lclavicle -4.77083e-015 4.77083e-015
lhumerus -25.0041 -1.13949 93.324
lradius 38.1384
lwrist -4.67365
lhand -24.5631 15.6413
lfingers 7.12502
lthumb 1.93348 45.6123
rfemur -27.0469 1.04102 19.4368
rtibia 34.3186
rfoot -14.1866 -5.65017
rtoes 0.890618
lfemur -28.0597 -0.318339 -19.2986
ltibia 34.7084
lfoot -14.864 0.933063
ltoes 0.370081
112
root 0.997523 17.4855 -16.1614 11.4638 -0.187232 0.315327
lowerback 15.1846 -0.18975 -0.853388
upperback 1.73975 -0.173518 3.02889
thorax -6.6566 -0.0222891 3.74705
lowerneck -19.8458 -4.37103 -9.22727
upperneck 19.0382 -4.42765 5.11236
head 9.62908 -2.15237 2.67525
rclavicle 4.37326e-015 -1.66979e-014
rhumerus -25.9316 3.52175 -86.2991
rradius 45.1851
rwrist 2.63502
rhand -6.40869 8.04183
rfingers 7.12502
rthumb 19.4394 -21.0064
lclavicle 4.37326e-015 -1.66979e-014
lhumerus -24.7987 -1.00076 93.3483
lradius 38.3435
lwrist -4.60719
lhand -25.4754 15.5382
lfingers 7.12502
lthumb 1.05244 45.5153
rfemur -27.7779 0.901154 19.3789
rtibia 34.9227
rfoot -14.2139 -5.62002
rtoes 0.757483
lfemur -28.7281 -0.213706 -19.387
ltibia 35.1457
lfoot -14.9422 0.774925
ltoes 0.768001
113
root 1.00454 17.4648 -16.1882 11.7254 -0.231871 0.274581
lowerback 15.3826 -0.198182 -0.838456
upperback 1.82492 -0.178365 3.0849
thorax -6.67438 -0.0249678 3.80201
lowerneck -19.8573 -4.34098 -9.32523
upperneck 18.7777 -4.36383 5.18485
head 9.5386 -2.11894 2.72378
rclavicle -5.56597e-015 3.02153e-014
rhumerus -25.3 3.12385 -86.1872
rradius 44.9371
rwrist 2.72495
rhand -6.25279 7.19401
rfingers 7.12502
rthumb 19.5893 -21.8391
lclavicle -5.56597e-015 3.02153e-014
lhumerus -24.74 -1.06548 93.327
lradius 38.7897
lwrist -4.50843
lhand -23.1216 18.8562
lfingers 7.12502
lthumb 3.32568 48.81
rfemur -28.5187 0.945995 19.3954
rtibia 35.5169
rfoot -14.2891 -5.6379
rtoes 0.373753
lfemur -29.4004 -0.000925709 -19.3903
ltibia 35.6164
lfoot -14.9942 0.57432
ltoes 1.09687
114
root 1.01543 17.4501 -16.2149 12.0311 -0.107598 0.235263
lowerback 15.6898 -0.229072 -0.609734
upperback 1.85163 -0.178869 3.07111
thorax -6.81615 -0.0297303 3.66213
lowerneck -20.0946 -4.35175 -9.35527
upperneck 18.6999 -4.36651 5.2852
head 9.55704 -2.1067 2.76082
rclavicle -1.43125e-014 5.00937e-014
rhumerus -24.843 2.4088 -86.0917
rradius 44.7593
rwrist 2.81141
rhand -6.15116 6.85176
rfingers 7.12502
rthumb 19.687 -22.1713
lclavicle -1.43125e-014 5.00937e-014
lhumerus -24.5957 -1.49546 93.293
lradius 38.9347
lwrist -4.59142
lhand -17.4657 23.1275
lfingers 7.12502
lthumb 8.78596 52.9246
rfemur -29.2606 0.799659 19.4147
rtibia 36.0908
rfoot -14.5251 -5.61919
rtoes 0.0518285
lfemur -30.1707 0.0935225 -19.3971
ltibia 36.1561
lfoot -15.0295 0.349701
ltoes 0.41623
115
root 1.02632 17.4342 -16.2429 12.3647 0.0979494 0.141168
lowerback 15.9886 -0.293844 -0.310567
upperback 1.85348 -0.207545 3.08509
thorax -6.9782 -0.0495012 3.51833
lowerneck -20.2826 -4.35006 -9.20128
upperneck 18.5289 -4.35671 5.154
head 9.5228 -2.10142 2.6875
rclavicle -3.97569e-015 5.56597e-015
rhumerus -24.5675 1.83506 -85.9904
rradius 44.6637
rwrist 2.84614
rhand -6.88477 7.74654
rfingers 7.12502
rthumb 18.9816 -21.3473
lclavicle -3.97569e-015 5.56597e-015
lhumerus -24.3462 -1.84053 93.2668
lradius 38.7689
lwrist -4.30926
lhand -17.6211 23.7812
lfingers 7.12502
lthumb 8.63598 53.5846
rfemur -30.0169 0.630834 19.5142
rtibia 36.632
rfoot -14.6308 -5.68543
rtoes 0.0308048
lfemur -31.0021 0.209092 -19.3524
ltibia 36.6908
lfoot -15.088 0.0768992
ltoes -0.56436
116
root 1.03778 17.4109 -16.2671 12.6122 0.250463 0.00579912
lowerback 16.1682 -0.338548 0.0388497
upperback 1.96774 -0.20606 3.07211
thorax -6.9559 -0.0597077 3.30585
lowerneck -20.4205 -4.3731 -8.93227
upperneck 18.2041 -4.40031 4.94749
head 9.42504 -2.1207 2.56059
rclavicle 3.57812e-015 -1.35174e-014
rhumerus -24.3225 1.10618 -85.9235
rradius 44.784
rwrist 2.97934
rhand -7.64531 8.6321
rfingers 7.12502
rthumb 18.2501 -20.5318
lclavicle 3.57812e-015 -1.35174e-014
lhumerus -24.1537 -2.20466 93.1952
lradius 38.8689
lwrist -4.02696
lhand -17.9733 23.6243
lfingers 7.12502
lthumb 8.29612 53.4414
rfemur -30.6513 0.516405 19.6617
rtibia 37.1446
rfoot -14.7142 -5.71291
rtoes -0.111313
lfemur -31.7021 0.398445 -19.2642
ltibia 37.2074
lfoot -15.2116 -0.250669
ltoes -0.0966596
117
root 1.04833 17.3897 -16.2862 12.772 0.271395 0.00287491
lowerback 16.3644 -0.362947 0.139868
upperback 2.1231 -0.220505 3.07506
thorax -6.89645 -0.0710993 3.25546
lowerneck -20.6057 -4.38305 -8.81363
upperneck 17.9788 -4.39125 4.79489
head 9.37177 -2.12071 2.48555
rclavicle 7.15625e-015 7.95139e-016
rhumerus -24.0527 0.475444 -85.8229
rradius 44.9526
rwrist 3.12473
rhand -7.89269 8.66833
rfingers 7.12502
rthumb 18.0121 -20.5176
lclavicle 7.15625e-015 7.95139e-016
lhumerus -23.8806 -2.46727 93.1369
lradius 38.9351
lwrist -3.89861
lhand -18.0775 23.343
lfingers 7.12502
lthumb 8.19553 53.164
rfemur -31.1855 0.513335 19.6248
rtibia 37.6623
rfoot -14.8129 -5.77139
rtoes -0.085126
lfemur -32.2713 0.656161 -19.3348
ltibia 37.7364
lfoot -15.3196 -0.607009
ltoes 0.745283
118
root 1.05837 17.3725 -16.3048 12.9711 0.296139 0.0195662
lowerback 16.6144 -0.43906 0.1182
upperback 2.15569 -0.314102 3.15733
thorax -6.99305 -0.114025 3.38182
lowerneck -20.6094 -4.30413 -8.9462
upperneck 17.8368 -4.22517 4.74304
head 9.31272 -2.05724 2.5121
rclavicle 4.77083e-015 7.95139e-016
rhumerus -23.7177 0.29346 -85.6718
rradius 44.8004
rwrist 3.03224
rhand -8.24066 8.53132
rfingers 7.12502
rthumb 17.6773 -20.6851
lclavicle 4.77083e-015 7.95139e-016
lhumerus -23.7669 -2.50848 93.1345
lradius 39.0625
lwrist -3.61283
lhand -18.0459 23.199
lfingers 7.12502
lthumb 8.226 53.0188
rfemur -31.7342 0.420976 19.5663
rtibia 38.1687
rfoot -14.9786 -5.68949
rtoes 0.216098
lfemur -32.9058 0.876436 -19.4467
ltibia 38.274
lfoot -15.3989 -0.877634
ltoes 0.625433
119
root 1.06635 17.3511 -16.3253 13.1349 0.46804 -0.0949004
lowerback 16.9059 -0.545167 0.26873
upperback 2.18115 -0.411166 3.2799
thorax -7.12036 -0.162168 3.45611
lowerneck -20.5923 -4.24078 -9.12795
upperneck 17.689 -4.08985 4.78928
head 9.25347 -2.00038 2.57654
rclavicle -5.1684e-015 -1.35174e-014
rhumerus -23.4462 0.221682 -85.526
rradius 44.7666
rwrist 2.89904
rhand -8.6896 8.49806
rfingers 7.12502
rthumb 17.2452 -20.7568
lclavicle -5.1684e-015 -1.35174e-014
lhumerus -23.7661 -2.52948 93.135
lradius 39.3347
lwrist -3.41369
lhand -17.7653 23.6841
lfingers 7.12502
lthumb 8.49686 53.4932
rfemur -32.2214 0.265915 19.7052
rtibia 38.6555
rfoot -15.1345 -5.70003
rtoes -0.0542781
lfemur -33.4831 1.00796 -19.379
ltibia 38.7792
lfoot -15.4828 -1.13139
ltoes 0.477656
